  0
SECTION
  2
HEADER
  9
$ACADVER
  1
AC1014
  9
$HANDSEED
  5
FFFF
  9
$MEASUREMENT
 70
     1
  0
ENDSEC
  0
SECTION
  2
TABLES
  0
TABLE
  2
VPORT
  5
8
330
0
100
AcDbSymbolTable
 70
     4
  0
VPORT
  5
2E
330
8
100
AcDbSymbolTableRecord
100
AcDbViewportTableRecord
  2
*ACTIVE
 70
     0
 10
0.0
 20
0.0
 11
1.0
 21
1.0
 12
210.0
 22
148.5
 13
0.0
 23
0.0
 14
10.0
 24
10.0
 15
10.0
 25
10.0
 16
0.0
 26
0.0
 36
1.0
 17
0.0
 27
0.0
 37
0.0
 40
341.0
 41
1.24
 42
50.0
 43
0.0
 44
0.0
 50
0.0
 51
0.0
 71
     0
 72
   100
 73
     1
 74
     3
 75
     0
 76
     0
 77
     0
 78
     0
  0
ENDTAB
  0
TABLE
  2
LTYPE
  5
5
330
0
100
AcDbSymbolTable
 70
     1
  0
LTYPE
  5
14
330
5
100
AcDbSymbolTableRecord
100
AcDbLinetypeTableRecord
  2
BYBLOCK
 70
     0
  3

 72
    65
 73
     0
 40
0.0
  0
LTYPE
  5
15
330
5
100
AcDbSymbolTableRecord
100
AcDbLinetypeTableRecord
  2
BYLAYER
 70
     0
  3

 72
    65
 73
     0
 40
0.0
  0
LTYPE
  5
16
330
5
100
AcDbSymbolTableRecord
100
AcDbLinetypeTableRecord
  2
CONTINUOUS
 70
     0
  3
Solid line
 72
    65
 73
     0
 40
0.0
  0
ENDTAB
  0
TABLE
  2
LAYER
  5
2
100
AcDbSymbolTable
 70
2
  0
LAYER
  5
50
100
AcDbSymbolTableRecord
100
AcDbLayerTableRecord
  2
0
 70
0
  6
CONTINUOUS
  0
LAYER
  5
51
100
AcDbSymbolTableRecord
100
AcDbLayerTableRecord
  2
ink_ext_XXXXXX
 70
0
  6
CONTINUOUS
  0
ENDTAB
  0
TABLE
  2
STYLE
  5
3
330
0
100
AcDbSymbolTable
 70
     1
  0
STYLE
  5
11
330
3
100
AcDbSymbolTableRecord
100
AcDbTextStyleTableRecord
  2
STANDARD
 70
     0
 40
0.0
 41
1.0
 50
0.0
 71
     0
 42
2.5
  3
txt
  4

  0
ENDTAB
  0
TABLE
  2
VIEW
  5
6
330
0
100
AcDbSymbolTable
 70
     0
  0
ENDTAB
  0
TABLE
  2
UCS
  5
7
330
0
100
AcDbSymbolTable
 70
     0
  0
ENDTAB
  0
TABLE
  2
APPID
  5
9
330
0
100
AcDbSymbolTable
 70
     2
  0
APPID
  5
12
330
9
100
AcDbSymbolTableRecord
100
AcDbRegAppTableRecord
  2
ACAD
 70
     0
  0
ENDTAB
  0
TABLE
  2
DIMSTYLE
  5
A
330
0
100
AcDbSymbolTable
 70
     1
  0
DIMSTYLE
105
27
330
A
100
AcDbSymbolTableRecord
100
AcDbDimStyleTableRecord
  2
ISO-25
 70
     0
  3

  4

  5

  6

  7

 40
1.0
 41
2.5
 42
0.625
 43
3.75
 44
1.25
 45
0.0
 46
0.0
 47
0.0
 48
0.0
140
2.5
141
2.5
142
0.0
143
0.03937007874016
144
1.0
145
0.0
146
1.0
147
0.625
 71
     0
 72
     0
 73
     0
 74
     0
 75
     0
 76
     0
 77
     1
 78
     8
170
     0
171
     3
172
     1
173
     0
174
     0
175
     0
176
     0
177
     0
178
     0
270
     2
271
     2
272
     2
273
     2
274
     3
340
11
275
     0
280
     0
281
     0
282
     0
283
     0
284
     8
285
     0
286
     0
287
     3
288
     0
  0
ENDTAB
  0
TABLE
  2
BLOCK_RECORD
  5
1
330
0
100
AcDbSymbolTable
 70
     1
  0
BLOCK_RECORD
  5
1F
330
1
100
AcDbSymbolTableRecord
100
AcDbBlockTableRecord
  2
*MODEL_SPACE
  0
BLOCK_RECORD
  5
1B
330
1
100
AcDbSymbolTableRecord
100
AcDbBlockTableRecord
  2
*PAPER_SPACE
  0
ENDTAB
  0
ENDSEC
  0
SECTION
  2
BLOCKS
  0
BLOCK
  5
20
330
1F
100
AcDbEntity
  8
0
100
AcDbBlockBegin
  2
*MODEL_SPACE
 70
     0
 10
0.0
 20
0.0
 30
0.0
  3
*MODEL_SPACE
  1

  0
ENDBLK
  5
21
330
1F
100
AcDbEntity
  8
0
100
AcDbBlockEnd
  0
BLOCK
  5
1C
330
1B
100
AcDbEntity
 67
     1
  8
0
100
AcDbBlockBegin
  2
*PAPER_SPACE
  1

  0
ENDBLK
  5
1D
330
1B
100
AcDbEntity
 67
     1
  8
0
100
AcDbBlockEnd
  0
ENDSEC
  0
SECTION
  2
ENTITIES
  0
LWPOLYLINE
  5
100
100
AcDbEntity
  8
ink_ext_XXXXXX
 62
7
100
AcDbPolyline
 90
288
 70
1
 10
0.102994
 20
50.993277
 30
0.0
 10
0.103269
 20
51.007564
 30
0.0
 10
0.105190
 20
51.048532
 30
0.0
 10
0.110405
 20
51.113308
 30
0.0
 10
0.120561
 20
51.199027
 30
0.0
 10
0.137303
 20
51.302829
 30
0.0
 10
0.162280
 20
51.421844
 30
0.0
 10
0.197139
 20
51.553204
 30
0.0
 10
0.243525
 20
51.694047
 30
0.0
 10
0.303086
 20
51.841510
 30
0.0
 10
0.377469
 20
51.992722
 30
0.0
 10
0.468320
 20
52.144823
 30
0.0
 10
0.577286
 20
52.294942
 30
0.0
 10
0.706016
 20
52.440220
 30
0.0
 10
0.856153
 20
52.577790
 30
0.0
 10
1.029347
 20
52.704782
 30
0.0
 10
1.227243
 20
52.818336
 30
0.0
 10
2.540764
 20
53.478169
 30
0.0
 10
3.854286
 20
54.138006
 30
0.0
 10
5.167808
 20
54.797840
 30
0.0
 10
6.481329
 20
55.457676
 30
0.0
 10
7.794851
 20
56.117510
 30
0.0
 10
9.108373
 20
56.777346
 30
0.0
 10
10.421894
 20
57.437180
 30
0.0
 10
11.735416
 20
58.097014
 30
0.0
 10
13.048938
 20
58.756850
 30
0.0
 10
14.362460
 20
59.416684
 30
0.0
 10
15.675981
 20
60.076521
 30
0.0
 10
16.989503
 20
60.736352
 30
0.0
 10
18.303025
 20
61.396188
 30
0.0
 10
19.616547
 20
62.056025
 30
0.0
 10
20.930069
 20
62.715858
 30
0.0
 10
22.243590
 20
63.375695
 30
0.0
 10
22.256504
 20
63.381939
 30
0.0
 10
22.294190
 20
63.399084
 30
0.0
 10
22.355085
 20
63.424881
 30
0.0
 10
22.437616
 20
63.456996
 30
0.0
 10
22.540219
 20
63.493127
 30
0.0
 10
22.661322
 20
63.530973
 30
0.0
 10
22.799358
 20
63.568229
 30
0.0
 10
22.952756
 20
63.602591
 30
0.0
 10
23.119948
 20
63.631756
 30
0.0
 10
23.299367
 20
63.653425
 30
0.0
 10
23.489441
 20
63.665279
 30
0.0
 10
23.688605
 20
63.665075
 30
0.0
 10
23.895289
 20
63.650417
 30
0.0
 10
24.107921
 20
63.619032
 30
0.0
 10
24.324936
 20
63.568621
 30
0.0
 10
24.544766
 20
63.496882
 30
0.0
 10
27.305725
 20
62.456673
 30
0.0
 10
30.066684
 20
61.416461
 30
0.0
 10
32.827643
 20
60.376251
 30
0.0
 10
35.588601
 20
59.336039
 30
0.0
 10
38.349560
 20
58.295830
 30
0.0
 10
41.110516
 20
57.255615
 30
0.0
 10
43.871478
 20
56.215406
 30
0.0
 10
46.632434
 20
55.175194
 30
0.0
 10
49.393393
 20
54.134984
 30
0.0
 10
52.154352
 20
53.094775
 30
0.0
 10
54.915311
 20
52.054563
 30
0.0
 10
57.676269
 20
51.014354
 30
0.0
 10
60.437228
 20
49.974142
 30
0.0
 10
63.198187
 20
48.933932
 30
0.0
 10
65.959146
 20
47.893717
 30
0.0
 10
68.720105
 20
46.853508
 30
0.0
 10
68.733334
 20
46.848216
 30
0.0
 10
68.770688
 20
46.831997
 30
0.0
 10
68.828727
 20
46.804288
 30
0.0
 10
68.904006
 20
46.764547
 30
0.0
 10
68.993078
 20
46.712226
 30
0.0
 10
69.092493
 20
46.646781
 30
0.0
 10
69.198802
 20
46.567660
 30
0.0
 10
69.308559
 20
46.474315
 30
0.0
 10
69.418319
 20
46.366201
 30
0.0
 10
69.524629
 20
46.242768
 30
0.0
 10
69.624043
 20
46.103467
 30
0.0
 10
69.713115
 20
45.947757
 30
0.0
 10
69.788392
 20
45.775085
 30
0.0
 10
69.846433
 20
45.584908
 30
0.0
 10
69.883787
 20
45.376675
 30
0.0
 10
69.897016
 20
45.149837
 30
0.0
 10
69.897016
 20
43.116091
 30
0.0
 10
69.897016
 20
41.082342
 30
0.0
 10
69.897016
 20
39.048599
 30
0.0
 10
69.897016
 20
37.014852
 30
0.0
 10
69.897016
 20
34.981109
 30
0.0
 10
69.897016
 20
32.947365
 30
0.0
 10
69.897016
 20
30.913622
 30
0.0
 10
69.897016
 20
28.879875
 30
0.0
 10
69.897016
 20
26.846129
 30
0.0
 10
69.897016
 20
24.812383
 30
0.0
 10
69.897016
 20
22.778637
 30
0.0
 10
69.897016
 20
20.744890
 30
0.0
 10
69.897016
 20
18.711118
 30
0.0
 10
69.897016
 20
16.677398
 30
0.0
 10
69.897016
 20
14.643652
 30
0.0
 10
69.897016
 20
12.609879
 30
0.0
 10
69.896810
 20
12.595591
 30
0.0
 10
69.894958
 20
12.554634
 30
0.0
 10
69.889746
 20
12.489864
 30
0.0
 10
69.879586
 20
12.404139
 30
0.0
 10
69.862838
 20
12.300343
 30
0.0
 10
69.837861
 20
12.181307
 30
0.0
 10
69.803005
 20
12.049941
 30
0.0
 10
69.756623
 20
11.909104
 30
0.0
 10
69.697068
 20
11.761651
 30
0.0
 10
69.622691
 20
11.610442
 30
0.0
 10
69.531849
 20
11.458333
 30
0.0
 10
69.422891
 20
11.308208
 30
0.0
 10
69.294174
 20
11.162899
 30
0.0
 10
69.144052
 20
11.025342
 30
0.0
 10
68.970872
 20
10.898342
 30
0.0
 10
68.772992
 20
10.784757
 30
0.0
 10
67.459471
 20
10.124912
 30
0.0
 10
66.145950
 20
9.465068
 30
0.0
 10
64.832426
 20
8.805224
 30
0.0
 10
63.518902
 20
8.145379
 30
0.0
 10
62.205381
 20
7.485535
 30
0.0
 10
60.891857
 20
6.825664
 30
0.0
 10
59.578333
 20
6.165820
 30
0.0
 10
58.264811
 20
5.505975
 30
0.0
 10
56.951290
 20
4.846131
 30
0.0
 10
55.637766
 20
4.186260
 30
0.0
 10
54.324242
 20
3.526416
 30
0.0
 10
53.010721
 20
2.866571
 30
0.0
 10
51.697197
 20
2.206727
 30
0.0
 10
50.383673
 20
1.546856
 30
0.0
 10
49.070152
 20
0.887012
 30
0.0
 10
47.756630
 20
0.227167
 30
0.0
 10
47.744010
 20
0.221346
 30
0.0
 10
47.708333
 20
0.205471
 30
0.0
 10
47.652892
 20
0.183511
 30
0.0
 10
47.580987
 20
0.158640
 30
0.0
 10
47.495907
 20
0.134563
 30
0.0
 10
47.400948
 20
0.114719
 30
0.0
 10
47.299398
 20
0.102813
 30
0.0
 10
47.194560
 20
0.102813
 30
0.0
 10
47.089721
 20
0.116836
 30
0.0
 10
46.988172
 20
0.149221
 30
0.0
 10
46.893215
 20
0.203355
 30
0.0
 10
46.808133
 20
0.282756
 30
0.0
 10
46.736228
 20
0.390891
 30
0.0
 10
46.680789
 20
0.531306
 30
0.0
 10
46.645110
 20
0.707492
 30
0.0
 10
46.632490
 20
0.922889
 30
0.0
 10
46.632490
 20
2.043638
 30
0.0
 10
46.632490
 20
3.164413
 30
0.0
 10
46.632490
 20
4.285161
 30
0.0
 10
46.632490
 20
5.405910
 30
0.0
 10
46.632490
 20
6.526658
 30
0.0
 10
46.632490
 20
7.647407
 30
0.0
 10
46.632490
 20
8.768155
 30
0.0
 10
46.632490
 20
9.888904
 30
0.0
 10
46.632490
 20
11.009653
 30
0.0
 10
46.632490
 20
12.130401
 30
0.0
 10
46.632490
 20
13.251150
 30
0.0
 10
46.632490
 20
14.371925
 30
0.0
 10
46.632490
 20
15.492673
 30
0.0
 10
46.632490
 20
16.613395
 30
0.0
 10
46.632490
 20
17.734170
 30
0.0
 10
46.632490
 20
18.854919
 30
0.0
 10
46.632283
 20
18.868942
 30
0.0
 10
46.630431
 20
18.907994
 30
0.0
 10
46.625219
 20
18.967525
 30
0.0
 10
46.615059
 20
19.043011
 30
0.0
 10
46.598311
 20
19.129980
 30
0.0
 10
46.573334
 20
19.223880
 30
0.0
 10
46.538478
 20
19.320215
 30
0.0
 10
46.492097
 20
19.414433
 30
0.0
 10
46.432541
 20
19.502037
 30
0.0
 10
46.358164
 20
19.578501
 30
0.0
 10
46.267320
 20
19.639303
 30
0.0
 10
46.158364
 20
19.679943
 30
0.0
 10
46.029647
 20
19.695818
 30
0.0
 10
45.879523
 20
19.682588
 30
0.0
 10
45.706342
 20
19.635572
 30
0.0
 10
45.508463
 20
19.550297
 30
0.0
 10
44.194944
 20
18.890452
 30
0.0
 10
42.881426
 20
18.230608
 30
0.0
 10
41.567907
 20
17.570764
 30
0.0
 10
40.254386
 20
16.910919
 30
0.0
 10
38.940867
 20
16.251075
 30
0.0
 10
37.627348
 20
15.591204
 30
0.0
 10
36.313830
 20
14.931360
 30
0.0
 10
35.000311
 20
14.271515
 30
0.0
 10
33.686792
 20
13.611671
 30
0.0
 10
32.373274
 20
12.951800
 30
0.0
 10
31.059755
 20
12.291956
 30
0.0
 10
29.746234
 20
11.632111
 30
0.0
 10
28.432715
 20
10.972267
 30
0.0
 10
27.119196
 20
10.312396
 30
0.0
 10
25.805676
 20
9.652552
 30
0.0
 10
24.492157
 20
8.992707
 30
0.0
 10
24.479531
 20
8.986622
 30
0.0
 10
24.443850
 20
8.971011
 30
0.0
 10
24.388406
 20
8.949051
 30
0.0
 10
24.316495
 20
8.924445
 30
0.0
 10
24.231409
 20
8.900632
 30
0.0
 10
24.136442
 20
8.880789
 30
0.0
 10
24.034887
 20
8.868882
 30
0.0
 10
23.930039
 20
8.868882
 30
0.0
 10
23.825191
 20
8.883170
 30
0.0
 10
23.723636
 20
8.915528
 30
0.0
 10
23.628669
 20
8.969662
 30
0.0
 10
23.543583
 20
9.049064
 30
0.0
 10
23.471672
 20
9.157225
 30
0.0
 10
23.416229
 20
9.297613
 30
0.0
 10
23.380547
 20
9.473799
 30
0.0
 10
23.367921
 20
9.689223
 30
0.0
 10
23.367921
 20
10.809945
 30
0.0
 10
23.367921
 20
11.930694
 30
0.0
 10
23.367921
 20
13.051416
 30
0.0
 10
23.367921
 20
14.172164
 30
0.0
 10
23.367921
 20
15.292886
 30
0.0
 10
23.367921
 20
16.413635
 30
0.0
 10
23.367921
 20
17.534357
 30
0.0
 10
23.367921
 20
18.655105
 30
0.0
 10
23.367921
 20
19.775828
 30
0.0
 10
23.367921
 20
20.896550
 30
0.0
 10
23.367921
 20
22.017298
 30
0.0
 10
23.367921
 20
23.138020
 30
0.0
 10
23.367921
 20
24.258742
 30
0.0
 10
23.367921
 20
25.379491
 30
0.0
 10
23.367921
 20
26.500213
 30
0.0
 10
23.367921
 20
27.620961
 30
0.0
 10
23.367715
 20
27.634984
 30
0.0
 10
23.365863
 20
27.674037
 30
0.0
 10
23.360651
 20
27.733568
 30
0.0
 10
23.350496
 20
27.809080
 30
0.0
 10
23.333750
 20
27.896075
 30
0.0
 10
23.308779
 20
27.989976
 30
0.0
 10
23.273928
 20
28.086337
 30
0.0
 10
23.227549
 20
28.180582
 30
0.0
 10
23.168000
 20
28.268212
 30
0.0
 10
23.093630
 20
28.344703
 30
0.0
 10
23.002797
 20
28.405530
 30
0.0
 10
22.893849
 20
28.446197
 30
0.0
 10
22.765146
 20
28.462072
 30
0.0
 10
22.615035
 20
28.448843
 30
0.0
 10
22.441875
 20
28.401879
 30
0.0
 10
22.244014
 20
28.316630
 30
0.0
 10
20.930493
 20
27.656786
 30
0.0
 10
19.616971
 20
26.996942
 30
0.0
 10
18.303448
 20
26.337124
 30
0.0
 10
16.989927
 20
25.677279
 30
0.0
 10
15.676405
 20
25.017435
 30
0.0
 10
14.362884
 20
24.357591
 30
0.0
 10
13.049362
 20
23.697773
 30
0.0
 10
11.735840
 20
23.037928
 30
0.0
 10
10.422319
 20
22.378084
 30
0.0
 10
9.108797
 20
21.718266
 30
0.0
 10
7.795275
 20
21.058422
 30
0.0
 10
6.481753
 20
20.398577
 30
0.0
 10
5.168232
 20
19.738759
 30
0.0
 10
3.854711
 20
19.078915
 30
0.0
 10
2.541188
 20
18.419097
 30
0.0
 10
1.227667
 20
17.759253
 30
0.0
 10
1.215041
 20
17.753167
 30
0.0
 10
1.179359
 20
17.737292
 30
0.0
 10
1.123916
 20
17.715332
 30
0.0
 10
1.052003
 20
17.690461
 30
0.0
 10
0.966916
 20
17.666384
 30
0.0
 10
0.871948
 20
17.646540
 30
0.0
 10
0.770392
 20
17.634634
 30
0.0
 10
0.665524
 20
17.634634
 30
0.0
 10
0.560674
 20
17.648657
 30
0.0
 10
0.459119
 20
17.681015
 30
0.0
 10
0.364151
 20
17.735096
 30
0.0
 10
0.279064
 20
17.814498
 30
0.0
 10
0.207152
 20
17.922659
 30
0.0
 10
0.151707
 20
18.063074
 30
0.0
 10
0.116026
 20
18.239260
 30
0.0
 10
0.102994
 20
18.452805
 30
0.0
 10
0.102994
 20
20.486578
 30
0.0
 10
0.102994
 20
22.520324
 30
0.0
 10
0.102994
 20
24.554097
 30
0.0
 10
0.102994
 20
26.587869
 30
0.0
 10
0.102994
 20
28.621642
 30
0.0
 10
0.102994
 20
30.655388
 30
0.0
 10
0.102994
 20
32.689158
 30
0.0
 10
0.102994
 20
34.722923
 30
0.0
 10
0.102994
 20
36.756688
 30
0.0
 10
0.102994
 20
38.790453
 30
0.0
 10
0.102994
 20
40.824212
 30
0.0
 10
0.102994
 20
42.857977
 30
0.0
 10
0.102994
 20
44.891742
 30
0.0
 10
0.102994
 20
46.925507
 30
0.0
 10
0.102994
 20
48.959271
 30
0.0
  0
ENDSEC
  0
SECTION
  2
OBJECTS
  0
DICTIONARY
  5
C
330
0
100
AcDbDictionary
  3
ACAD_GROUP
350
D
  3
ACAD_MLINESTYLE
350
17
  0
DICTIONARY
  5
D
330
C
100
AcDbDictionary
  0
DICTIONARY
  5
1A
330
C
100
AcDbDictionary
  0
DICTIONARY
  5
17
330
C
100
AcDbDictionary
  3
STANDARD
350
18
  0
DICTIONARY
  5
19
330
C
100
AcDbDictionary
  0
ENDSEC
  0
EOF
